#!OML:ASF G:\JayActor3\Patient Classification 1\Patient 1\Session 6\male.ASF
:FULLY-SPECIFIED
:DEGREES
1644
root 1.77084 16.2812 -22.4853 177.244 -11.0184 -176.906
lowerback -2.68287 -3.08239 0.400597
upperback 7.75838 -4.95388 2.22354
thorax 9.8962 -2.72548 1.54151
lowerneck 6.94111 -9.91794 -6.73111
upperneck -0.119579 -13.7785 7.91965
head -0.138805 -7.04773 3.92776
rclavicle 7.8669e-014 -4.79071e-014
rhumerus -42.3355 9.71762 -91.8151
rradius 108.492
rwrist -22.113
rhand -31.1119 -22.0481
rfingers 7.12502
rthumb -4.39122 -51.9825
lclavicle 7.8669e-014 -4.79071e-014
lhumerus -26.4061 8.99159 82.1744
lradius 42.1541
lwrist 32.4723
lhand -14.858 9.45105
lfingers 7.12502
lthumb 11.3017 39.1266
rfemur -14.3492 7.1399 22.0422
rtibia 38.9796
rfoot -20.97 -6.91717
rtoes -1.351
lfemur -0.174828 8.91305 -14.8614
ltibia 25.2088
lfoot -28.5584 24.5067
ltoes 9.08844
1645
root 1.74043 16.2826 -22.4763 177.247 -10.8706 -176.903
lowerback -2.74054 -3.08138 0.292463
upperback 7.67295 -4.92208 2.18072
thorax 9.83872 -2.70911 1.55976
lowerneck 6.8444 -9.91507 -6.75547
upperneck 0.0274915 -13.785 7.95549
head -0.0691718 -7.05159 3.93095
rclavicle 3.36443e-014 1.98785e-015
rhumerus -42.515 9.70819 -91.8848
rradius 108.489
rwrist -22.2536
rhand -31.0866 -22.0888
rfingers 7.12502
rthumb -4.36673 -52.0237
lclavicle 3.36443e-014 1.98785e-015
lhumerus -26.3397 8.7387 82.3891
lradius 42.1407
lwrist 32.4198
lhand -14.6933 9.4506
lfingers 7.12502
lthumb 11.4606 39.1173
rfemur -14.3761 7.29452 21.9469
rtibia 38.9695
rfoot -20.9227 -7.00447
rtoes -1.49536
lfemur -0.134659 8.81514 -15.0296
ltibia 25.1674
lfoot -28.7892 24.6476
ltoes 9.3516
1646
root 1.71003 16.2836 -22.4676 177.242 -10.7408 -176.897
lowerback -2.80826 -3.07432 0.202908
upperback 7.59712 -4.88452 2.13189
thorax 9.79561 -2.68847 1.56105
lowerneck 6.75255 -9.91 -6.77963
upperneck 0.174641 -13.7895 8.00467
head 0.000495406 -7.05482 3.93911
rclavicle 7.54885e-014 -3.08116e-014
rhumerus -42.6748 9.68288 -91.9636
rradius 108.481
rwrist -22.3898
rhand -31.0408 -22.1127
rfingers 7.12502
rthumb -4.32255 -52.0485
lclavicle 7.54885e-014 -3.08116e-014
lhumerus -26.2699 8.49592 82.5909
lradius 42.086
lwrist 32.3675
lhand -14.5421 9.46606
lfingers 7.12502
lthumb 11.6064 39.1246
rfemur -14.3904 7.44021 21.8573
rtibia 38.9574
rfoot -20.8803 -7.10563
rtoes -1.65714
lfemur -0.0894093 8.71375 -15.1903
ltibia 25.1273
lfoot -29.0106 24.7821
ltoes 9.60065
1647
root 1.67959 16.2842 -22.4594 177.227 -10.6349 -176.888
lowerback -2.88071 -3.06472 0.124305
upperback 7.52911 -4.84534 2.07966
thorax 9.76279 -2.66637 1.55231
lowerneck 6.65746 -9.90371 -6.79017
upperneck 0.3307 -13.7923 8.04973
head 0.0721865 -7.05717 3.94311
rclavicle -8.34896e-015 6.95746e-015
rhumerus -42.8244 9.6615 -92.0457
rradius 108.478
rwrist -22.5283
rhand -30.9512 -22.1132
rfingers 7.12502
rthumb -4.236 -52.0508
lclavicle -8.34896e-015 6.95746e-015
lhumerus -26.201 8.2665 82.7863
lradius 41.9901
lwrist 32.3091
lhand -14.4399 9.47228
lfingers 7.12502
lthumb 11.7049 39.1253
rfemur -14.3866 7.5702 21.767
rtibia 38.9386
rfoot -20.8473 -7.19935
rtoes -1.79038
lfemur -0.043273 8.60717 -15.347
ltibia 25.098
lfoot -29.2193 24.9088
ltoes 9.81859
1648
root 1.64925 16.2843 -22.4514 177.203 -10.5568 -176.873
lowerback -2.95552 -3.05348 0.0611832
upperback 7.46739 -4.80616 2.02615
thorax 9.73702 -2.64338 1.5333
lowerneck 6.56033 -9.89547 -6.80601
upperneck 0.504337 -13.7949 8.09873
head 0.150634 -7.0596 3.94867
rclavicle 3.61291e-014 -9.54166e-015
rhumerus -42.9618 9.64257 -92.1327
rradius 108.476
rwrist -22.669
rhand -30.8659 -22.1102
rfingers 7.12502
rthumb -4.15362 -52.0495
lclavicle 3.61291e-014 -9.54166e-015
lhumerus -26.1356 8.04678 82.977
lradius 41.8583
lwrist 32.2538
lhand -14.4092 9.4636
lfingers 7.12502
lthumb 11.7345 39.1149
rfemur -14.3654 7.68069 21.6827
rtibia 38.9108
rfoot -20.8193 -7.29052
rtoes -1.91179
lfemur -0.00197406 8.50327 -15.4903
ltibia 25.085
lfoot -29.4149 25.0128
ltoes 10.0118
1649
root 1.61888 16.2839 -22.4434 177.165 -10.5065 -176.84
lowerback -3.02516 -3.04283 0.0234298
upperback 7.41141 -4.77141 1.97598
thorax 9.71297 -2.62136 1.50337
lowerneck 6.45972 -9.88003 -6.82949
upperneck 0.701183 -13.7907 8.14666
head 0.237167 -7.0588 3.95438
rclavicle 5.93869e-015 2.8128e-014
rhumerus -43.0858 9.63558 -92.2192
rradius 108.474
rwrist -22.806
rhand -30.7767 -22.1111
rfingers 7.12502
rthumb -4.06749 -52.052
lclavicle 5.93869e-015 2.8128e-014
lhumerus -26.0788 7.85548 83.1596
lradius 41.6938
lwrist 32.1771
lhand -14.4151 9.44844
lfingers 7.12502
lthumb 11.7289 39.1001
rfemur -14.3216 7.77358 21.6161
rtibia 38.872
rfoot -20.7975 -7.37596
rtoes -2.03611
lfemur 0.0367592 8.40142 -15.6081
ltibia 25.0916
lfoot -29.5945 25.0902
ltoes 10.1911
1650
root 1.5887 16.2831 -22.4355 177.118 -10.4872 -176.797
lowerback -3.09347 -3.03534 0.000489023
upperback 7.35931 -4.74304 1.92681
thorax 9.69164 -2.60173 1.46551
lowerneck 6.35336 -9.85242 -6.85657
upperneck 0.926798 -13.7731 8.18683
head 0.332602 -7.05135 3.95712
rclavicle -3.12837e-014 1.69961e-014
rhumerus -43.196 9.64387 -92.3118
rradius 108.469
rwrist -22.9378
rhand -30.7001 -22.1169
rfingers 7.12502
rthumb -3.9935 -52.0592
lclavicle -3.12837e-014 1.69961e-014
lhumerus -26.0325 7.6933 83.333
lradius 41.4984
lwrist 32.0779
lhand -14.4845 9.41375
lfingers 7.12502
lthumb 11.6619 39.0692
rfemur -14.2614 7.85032 21.5589
rtibia 38.8235
rfoot -20.78 -7.45959
rtoes -2.11891
lfemur 0.0668345 8.30584 -15.7072
ltibia 25.1176
lfoot -29.7626 25.1289
ltoes 10.3696
1651
root 1.55863 16.2818 -22.4275 177.06 -10.4986 -176.74
lowerback -3.1572 -3.02911 -0.00416584
upperback 7.31099 -4.71884 1.87938
thorax 9.67065 -2.58323 1.41903
lowerneck 6.23787 -9.81515 -6.87247
upperneck 1.18696 -13.7448 8.20969
head 0.437775 -7.03843 3.95071
rclavicle -2.76062e-014 2.98177e-016
rhumerus -43.2876 9.65566 -92.4069
rradius 108.451
rwrist -23.0562
rhand -30.6264 -22.1057
rfingers 7.12502
rthumb -3.92238 -52.0493
lclavicle -2.76062e-014 2.98177e-016
lhumerus -25.997 7.56904 83.4922
lradius 41.2773
lwrist 31.947
lhand -14.5698 9.39006
lfingers 7.12502
lthumb 11.5796 39.0502
rfemur -14.1829 7.90715 21.5162
rtibia 38.766
rfoot -20.763 -7.55274
rtoes -2.24376
lfemur 0.0925283 8.21263 -15.7851
ltibia 25.1601
lfoot -29.9131 25.1412
ltoes 10.5299
1652
root 1.52889 16.2804 -22.4196 176.996 -10.5389 -176.68
lowerback -3.22025 -3.02438 -0.0050797
upperback 7.2639 -4.6973 1.83262
thorax 9.65055 -2.56592 1.3709
lowerneck 6.11216 -9.7647 -6.8778
upperneck 1.49026 -13.7018 8.21152
head 0.555083 -7.01819 3.93383
rclavicle -3.16937e-014 1.3418e-014
rhumerus -43.3657 9.67946 -92.5054
rradius 108.426
rwrist -23.1626
rhand -30.5771 -22.1076
rfingers 7.12502
rthumb -3.87472 -52.0522
lclavicle -3.16937e-014 1.3418e-014
lhumerus -25.9766 7.4832 83.6401
lradius 41.035
lwrist 31.7995
lhand -14.6996 9.36697
lfingers 7.12502
lthumb 11.4545 39.034
rfemur -14.0925 7.94877 21.4783
rtibia 38.7024
rfoot -20.7481 -7.65632
rtoes -2.37716
lfemur 0.112609 8.12331 -15.8517
ltibia 25.2129
lfoot -30.0412 25.1295
ltoes 10.6669
